<svg width="500" height="500" viewBox="0 0 500 500" fill="none" xmlns="http://www.w3.org/2000/svg">
<path d="M132.06 150.869C132.06 175.092 140.642 187.204 157.807 187.204H342.193C385.936 187.204 423.034 201.948 453.488 231.438C484.496 260.927 500 296.472 500 338.073V349.131C500 390.732 484.496 426.277 453.488 455.766C423.034 485.255 385.936 500 342.193 500H39.8671V374.408H342.193C349.391 374.408 355.482 372.038 360.465 367.299C366.002 362.033 368.771 355.977 368.771 349.131C368.771 324.908 359.911 312.796 342.193 312.796H157.807C114.618 312.796 77.5194 298.052 46.5116 268.562C15.5039 239.073 0 203.528 0 161.927V150.869C0 109.268 15.5039 73.723 46.5116 44.2338C77.5194 14.7446 114.618 0 157.807 0H460.963V125.592H157.807C151.163 125.592 145.072 128.225 139.535 133.491C134.551 138.231 132.06 144.023 132.06 150.869Z" fill="black" fill-opacity="0.9"/>
</svg>
